# xmcd
#
# Track frame offsets:
#	150
#	15103
#	32611
#	48780
#	67534
#	83956
#	99955
#	119869
#	138669
#	150643
#	166146
#	183294
#	198099
#
# Disc length: 2873 seconds
#
# Revision: 1
# Processed by: cddbd v1.5.2PL0 Copyright (c) Steve Scherf et al.
# Submitted via: audiograbber 1.83.01
#
DISCID=930b370d
DTITLE=Mindy McCready - I'm Still Here
DYEAR=2010
DGENRE=Country
TTITLE0=Wrong Again
TTITLE1=By Her Side
TTITLE2=I Want A Man
TTITLE3=I'm Still Here
TTITLE4=I Want To Love You
TTITLE5=Songs About You
TTITLE6=The Way You Make Me Melt
TTITLE7=The Dance
TTITLE8=I Hate That I Love You
TTITLE9=Fades
TTITLE10=By Her Side (Acoustic Version)
TTITLE11=Guys Do It All The Time
TTITLE12=Ten Thousand Angels
EXTD=
EXTT0=
EXTT1=
EXTT2=
EXTT3=
EXTT4=
EXTT5=
EXTT6=
EXTT7=
EXTT8=
EXTT9=
EXTT10=
EXTT11=
EXTT12=
PLAYORDER=
